<?xml version="1.0"?>
<svg width="408" height="28" xmlns="http://www.w3.org/2000/svg" xmlns:svg="http://www.w3.org/2000/svg" enable-background="new 0 0 180 24" version="1.1" xml:space="preserve">
 <style type="text/css">.st0{fill:#4A4A4A;}</style>
 <g class="layer">
  <title>Layer 1</title>
  <path class="st0" d="m6.01,20.75l0,-17.61l7.48,0q2.82,0 4.1,0.47q1.28,0.48 2.05,1.69q0.77,1.21 0.77,2.77q0,1.99 -1.17,3.28q-1.16,1.29 -3.48,1.63q1.15,0.67 1.9,1.47q0.75,0.81 2.03,2.86l2.15,3.44l-4.25,0l-2.57,-3.84q-1.38,-2.05 -1.88,-2.58q-0.5,-0.54 -1.07,-0.74q-0.56,-0.19 -1.79,-0.19l-0.72,0l0,7.35l-3.55,0zm3.55,-10.16l2.63,0q2.56,0 3.2,-0.22q0.63,-0.22 0.99,-0.75q0.36,-0.52 0.36,-1.32q0,-0.89 -0.47,-1.43q-0.48,-0.55 -1.34,-0.69q-0.43,-0.06 -2.59,-0.06l-2.78,0l0,4.47zm21.56,6.1l3.36,0.56q-0.65,1.85 -2.04,2.82q-1.4,0.97 -3.51,0.97q-3.32,0 -4.92,-2.18q-1.26,-1.74 -1.26,-4.4q0,-3.17 1.66,-4.96q1.65,-1.8 4.19,-1.8q2.84,0 4.49,1.88q1.64,1.88 1.57,5.76l-8.45,0q0.03,1.5 0.81,2.34q0.78,0.83 1.95,0.83q0.79,0 1.33,-0.43q0.54,-0.43 0.82,-1.39zm0.19,-3.41q-0.03,-1.47 -0.76,-2.23q-0.72,-0.76 -1.75,-0.76q-1.1,0 -1.82,0.8q-0.73,0.8 -0.71,2.19l5.04,0zm5.78,8.31l3.86,0.47q0.1,0.67 0.45,0.92q0.48,0.36 1.51,0.36q1.32,0 1.98,-0.39q0.45,-0.27 0.67,-0.86q0.16,-0.42 0.16,-1.55l0,-1.86q-1.51,2.07 -3.82,2.07q-2.57,0 -4.07,-2.18q-1.18,-1.71 -1.18,-4.27q0,-3.21 1.54,-4.9q1.55,-1.7 3.84,-1.7q2.37,0 3.91,2.08l0,-1.79l3.15,0l0,11.45q0,2.26 -0.37,3.37q-0.37,1.12 -1.04,1.76q-0.67,0.63 -1.8,0.99q-1.12,0.36 -2.84,0.36q-3.24,0 -4.6,-1.11q-1.36,-1.11 -1.36,-2.81q0,-0.17 0.01,-0.41zm3.02,-7.48q0,2.02 0.79,2.97q0.78,0.94 1.94,0.94q1.23,0 2.09,-0.97q0.85,-0.96 0.85,-2.86q0,-1.98 -0.82,-2.94q-0.81,-0.96 -2.06,-0.96q-1.22,0 -2,0.94q-0.79,0.94 -0.79,2.88zm12.32,-7.85l0,-3.12l3.38,0l0,3.12l-3.38,0zm0,14.49l0,-12.76l3.38,0l0,12.76l-3.38,0zm5.65,-3.64l3.39,-0.52q0.21,0.99 0.87,1.5q0.67,0.51 1.85,0.51q1.31,0 1.97,-0.48q0.45,-0.34 0.45,-0.9q0,-0.39 -0.24,-0.64q-0.25,-0.24 -1.13,-0.45q-4.08,-0.9 -5.18,-1.64q-1.51,-1.03 -1.51,-2.87q0,-1.66 1.31,-2.79q1.31,-1.13 4.06,-1.13q2.62,0 3.89,0.85q1.27,0.86 1.75,2.53l-3.18,0.59q-0.2,-0.75 -0.77,-1.15q-0.58,-0.39 -1.63,-0.39q-1.33,0 -1.91,0.37q-0.39,0.27 -0.39,0.69q0,0.36 0.34,0.61q0.46,0.34 3.15,0.95q2.7,0.61 3.77,1.5q1.06,0.9 1.06,2.51q0,1.75 -1.47,3.01q-1.47,1.27 -4.34,1.27q-2.6,0 -4.12,-1.06q-1.52,-1.06 -1.99,-2.87zm20.73,-9.12l0,2.69l-2.31,0l0,5.14q0,1.56 0.07,1.82q0.06,0.26 0.3,0.43q0.23,0.17 0.57,0.17q0.47,0 1.36,-0.33l0.28,2.62q-1.17,0.51 -2.66,0.51q-0.92,0 -1.65,-0.31q-0.73,-0.31 -1.07,-0.79q-0.35,-0.49 -0.48,-1.32q-0.11,-0.59 -0.11,-2.38l0,-5.56l-1.55,0l0,-2.69l1.55,0l0,-2.53l3.39,-1.97l0,4.5l2.31,0zm5.57,12.76l-3.38,0l0,-12.76l3.14,0l0,1.81q0.8,-1.28 1.44,-1.69q0.65,-0.41 1.46,-0.41q1.16,0 2.23,0.64l-1.05,2.94q-0.85,-0.55 -1.59,-0.55q-0.71,0 -1.2,0.39q-0.49,0.39 -0.77,1.41q-0.28,1.02 -0.28,4.28l0,3.94zm5.56,-6.56q0,-1.68 0.83,-3.26q0.83,-1.57 2.35,-2.4q1.52,-0.83 3.39,-0.83q2.89,0 4.74,1.88q1.85,1.88 1.85,4.75q0,2.9 -1.86,4.8q-1.87,1.91 -4.71,1.91q-1.75,0 -3.34,-0.8q-1.59,-0.79 -2.42,-2.32q-0.83,-1.53 -0.83,-3.73zm3.46,0.18q0,1.9 0.9,2.91q0.9,1.01 2.22,1.01q1.32,0 2.22,-1.01q0.89,-1.01 0.89,-2.94q0,-1.87 -0.89,-2.88q-0.9,-1.01 -2.22,-1.01q-1.32,0 -2.22,1.01q-0.9,1.01 -0.9,2.91zm19.21,6.38l0,-17.61l13.05,0l0,2.98l-9.5,0l0,3.9l8.84,0l0,2.97l-8.84,0l0,4.79l9.84,0l0,2.97l-13.39,0zm16.37,0l0,-17.61l3.38,0l0,17.61l-3.38,0zm14.23,-4.06l3.36,0.56q-0.65,1.85 -2.05,2.82q-1.4,0.97 -3.5,0.97q-3.33,0 -4.92,-2.18q-1.26,-1.74 -1.26,-4.4q0,-3.17 1.65,-4.96q1.66,-1.8 4.19,-1.8q2.85,0 4.5,1.88q1.64,1.88 1.57,5.76l-8.46,0q0.04,1.5 0.82,2.34q0.78,0.83 1.95,0.83q0.79,0 1.33,-0.43q0.54,-0.43 0.82,-1.39zm0.19,-3.41q-0.04,-1.47 -0.76,-2.23q-0.72,-0.76 -1.75,-0.76q-1.11,0 -1.83,0.8q-0.72,0.8 -0.71,2.19l5.05,0zm17.23,-1.52l-3.33,0.6q-0.17,-0.99 -0.76,-1.5q-0.59,-0.5 -1.54,-0.5q-1.26,0 -2.01,0.87q-0.76,0.87 -0.76,2.91q0,2.27 0.77,3.21q0.76,0.94 2.04,0.94q0.97,0 1.58,-0.55q0.61,-0.55 0.86,-1.88l3.32,0.56q-0.52,2.28 -1.98,3.45q-1.47,1.17 -3.93,1.17q-2.8,0 -4.46,-1.77q-1.67,-1.77 -1.67,-4.89q0,-3.16 1.67,-4.92q1.67,-1.76 4.52,-1.76q2.33,0 3.7,1.01q1.38,1 1.98,3.05zm8.4,-3.77l0,2.69l-2.3,0l0,5.14q0,1.56 0.06,1.82q0.07,0.26 0.3,0.43q0.24,0.17 0.57,0.17q0.47,0 1.36,-0.33l0.29,2.62q-1.18,0.51 -2.67,0.51q-0.91,0 -1.64,-0.31q-0.74,-0.31 -1.08,-0.79q-0.34,-0.49 -0.47,-1.32q-0.11,-0.59 -0.11,-2.38l0,-5.56l-1.55,0l0,-2.69l1.55,0l0,-2.53l3.39,-1.97l0,4.5l2.3,0zm5.58,12.76l-3.37,0l0,-12.76l3.13,0l0,1.81q0.81,-1.28 1.45,-1.69q0.64,-0.41 1.46,-0.41q1.15,0 2.22,0.64l-1.04,2.94q-0.86,-0.55 -1.59,-0.55q-0.71,0 -1.2,0.39q-0.49,0.39 -0.77,1.41q-0.29,1.02 -0.29,4.28l0,3.94zm5.55,-6.56q0,-1.68 0.83,-3.26q0.83,-1.57 2.35,-2.4q1.52,-0.83 3.39,-0.83q2.9,0 4.75,1.88q1.85,1.88 1.85,4.75q0,2.9 -1.87,4.8q-1.87,1.91 -4.7,1.91q-1.76,0 -3.35,-0.8q-1.59,-0.79 -2.42,-2.32q-0.83,-1.53 -0.83,-3.73zm3.46,0.18q0,1.9 0.9,2.91q0.91,1.01 2.23,1.01q1.32,0 2.21,-1.01q0.9,-1.01 0.9,-2.94q0,-1.87 -0.9,-2.88q-0.89,-1.01 -2.21,-1.01q-1.32,0 -2.23,1.01q-0.9,1.01 -0.9,2.91zm1.42,-7.94l1.66,-3.59l3.78,0l-3.3,3.59l-2.14,0zm22.55,14.32l-3.38,0l0,-6.51q0,-2.07 -0.22,-2.68q-0.21,-0.6 -0.7,-0.94q-0.48,-0.33 -1.17,-0.33q-0.88,0 -1.57,0.48q-0.7,0.48 -0.96,1.27q-0.26,0.79 -0.26,2.93l0,5.78l-3.37,0l0,-12.76l3.13,0l0,1.87q1.67,-2.16 4.21,-2.16q1.11,0 2.04,0.41q0.92,0.4 1.4,1.02q0.47,0.63 0.66,1.42q0.19,0.79 0.19,2.27l0,7.93zm3.42,-14.49l0,-3.12l3.37,0l0,3.12l-3.37,0zm0,14.49l0,-12.76l3.37,0l0,12.76l-3.37,0zm17.95,-8.99l-3.33,0.6q-0.17,-0.99 -0.76,-1.5q-0.6,-0.5 -1.55,-0.5q-1.26,0 -2.01,0.87q-0.75,0.87 -0.75,2.91q0,2.27 0.76,3.21q0.76,0.94 2.05,0.94q0.96,0 1.57,-0.55q0.62,-0.55 0.87,-1.88l3.31,0.56q-0.51,2.28 -1.98,3.45q-1.46,1.17 -3.93,1.17q-2.8,0 -4.46,-1.77q-1.66,-1.77 -1.66,-4.89q0,-3.16 1.67,-4.92q1.67,-1.76 4.51,-1.76q2.33,0 3.71,1.01q1.37,1 1.98,3.05zm1.78,2.43q0,-1.68 0.83,-3.26q0.83,-1.57 2.35,-2.4q1.52,-0.83 3.39,-0.83q2.89,0 4.74,1.88q1.85,1.88 1.85,4.75q0,2.9 -1.86,4.8q-1.87,1.91 -4.71,1.91q-1.75,0 -3.34,-0.8q-1.59,-0.79 -2.42,-2.32q-0.83,-1.53 -0.83,-3.73zm3.46,0.18q0,1.9 0.9,2.91q0.9,1.01 2.22,1.01q1.32,0 2.22,-1.01q0.89,-1.01 0.89,-2.94q0,-1.87 -0.89,-2.88q-0.9,-1.01 -2.22,-1.01q-1.32,0 -2.22,1.01q-0.9,1.01 -0.9,2.91zm30.88,6.38l-3.13,0l0,-1.88q-0.78,1.1 -1.85,1.63q-1.06,0.54 -2.14,0.54q-2.2,0 -3.77,-1.78q-1.56,-1.77 -1.56,-4.94q0,-3.24 1.52,-4.93q1.53,-1.69 3.86,-1.69q2.13,0 3.7,1.78l0,-6.34l3.37,0l0,17.61zm-9.01,-6.66q0,2.04 0.57,2.96q0.81,1.32 2.28,1.32q1.16,0 1.98,-0.99q0.82,-0.99 0.82,-2.96q0,-2.2 -0.79,-3.17q-0.8,-0.96 -2.03,-0.96q-1.21,0 -2.02,0.95q-0.81,0.96 -0.81,2.85zm19.72,2.6l3.37,0.56q-0.65,1.85 -2.05,2.82q-1.4,0.97 -3.5,0.97q-3.33,0 -4.93,-2.18q-1.26,-1.74 -1.26,-4.4q0,-3.17 1.66,-4.96q1.66,-1.8 4.19,-1.8q2.85,0 4.49,1.88q1.65,1.88 1.58,5.76l-8.46,0q0.04,1.5 0.82,2.34q0.78,0.83 1.94,0.83q0.8,0 1.34,-0.43q0.54,-0.43 0.81,-1.39zm0.2,-3.41q-0.04,-1.47 -0.76,-2.23q-0.72,-0.76 -1.75,-0.76q-1.11,0 -1.83,0.8q-0.72,0.8 -0.71,2.19l5.05,0zm12.95,7.47l0,-17.61l5.71,0q3.24,0 4.23,0.26q1.51,0.4 2.53,1.73q1.02,1.32 1.02,3.42q0,1.63 -0.59,2.73q-0.58,1.11 -1.49,1.74q-0.91,0.63 -1.85,0.83q-1.27,0.26 -3.68,0.26l-2.32,0l0,6.64l-3.56,0zm3.56,-14.63l0,4.99l1.94,0q2.11,0 2.82,-0.27q0.7,-0.28 1.11,-0.87q0.4,-0.59 0.4,-1.37q0,-0.96 -0.57,-1.58q-0.56,-0.63 -1.43,-0.78q-0.63,-0.12 -2.55,-0.12l-1.72,0zm15.36,5.76l-3.07,-0.55q0.52,-1.85 1.78,-2.74q1.26,-0.89 3.75,-0.89q2.25,0 3.36,0.54q1.11,0.53 1.56,1.35q0.45,0.83 0.45,3.02l-0.04,3.94q0,1.69 0.16,2.49q0.17,0.79 0.61,1.71l-3.34,0q-0.13,-0.34 -0.33,-1q-0.08,-0.3 -0.12,-0.4q-0.86,0.84 -1.84,1.26q-0.99,0.43 -2.11,0.43q-1.97,0 -3.1,-1.07q-1.14,-1.07 -1.14,-2.71q0,-1.08 0.52,-1.92q0.52,-0.85 1.45,-1.3q0.93,-0.45 2.68,-0.79q2.37,-0.44 3.28,-0.83l0,-0.33q0,-0.98 -0.48,-1.39q-0.48,-0.41 -1.81,-0.41q-0.9,0 -1.41,0.35q-0.5,0.35 -0.81,1.24zm4.51,2.74q-0.65,0.22 -2.05,0.52q-1.41,0.3 -1.84,0.59q-0.66,0.47 -0.66,1.18q0,0.71 0.53,1.23q0.53,0.52 1.34,0.52q0.92,0 1.74,-0.6q0.62,-0.46 0.81,-1.12q0.13,-0.43 0.13,-1.65l0,-0.67zm17.76,-2.86l-3.33,0.6q-0.17,-0.99 -0.76,-1.5q-0.59,-0.5 -1.54,-0.5q-1.26,0 -2.01,0.87q-0.76,0.87 -0.76,2.91q0,2.27 0.77,3.21q0.76,0.94 2.05,0.94q0.96,0 1.57,-0.55q0.61,-0.55 0.86,-1.88l3.32,0.56q-0.52,2.28 -1.98,3.45q-1.47,1.17 -3.93,1.17q-2.8,0 -4.46,-1.77q-1.67,-1.77 -1.67,-4.89q0,-3.16 1.67,-4.92q1.67,-1.76 4.52,-1.76q2.33,0 3.7,1.01q1.38,1 1.98,3.05zm2.56,-5.5l0,-3.12l3.38,0l0,3.12l-3.38,0zm0,14.49l0,-12.76l3.38,0l0,12.76l-3.38,0zm14.23,-4.06l3.36,0.56q-0.65,1.85 -2.04,2.82q-1.41,0.97 -3.51,0.97q-3.32,0 -4.92,-2.18q-1.26,-1.74 -1.26,-4.4q0,-3.17 1.65,-4.96q1.66,-1.8 4.2,-1.8q2.84,0 4.49,1.88q1.65,1.88 1.57,5.76l-8.45,0q0.03,1.5 0.81,2.34q0.78,0.83 1.95,0.83q0.79,0 1.33,-0.43q0.54,-0.43 0.82,-1.39zm0.19,-3.41q-0.03,-1.47 -0.75,-2.23q-0.73,-0.76 -1.76,-0.76q-1.1,0 -1.83,0.8q-0.71,0.8 -0.7,2.19l5.04,0zm17.7,7.47l-3.37,0l0,-6.51q0,-2.07 -0.22,-2.68q-0.22,-0.6 -0.7,-0.94q-0.49,-0.33 -1.17,-0.33q-0.88,0 -1.58,0.48q-0.7,0.48 -0.95,1.27q-0.26,0.79 -0.26,2.93l0,5.78l-3.38,0l0,-12.76l3.14,0l0,1.87q1.67,-2.16 4.2,-2.16q1.12,0 2.04,0.41q0.93,0.4 1.4,1.02q0.48,0.63 0.66,1.42q0.19,0.79 0.19,2.27l0,7.93zm9.27,-12.76l0,2.69l-2.3,0l0,5.14q0,1.56 0.06,1.82q0.07,0.26 0.3,0.43q0.24,0.17 0.57,0.17q0.47,0 1.36,-0.33l0.29,2.62q-1.18,0.51 -2.67,0.51q-0.91,0 -1.64,-0.31q-0.74,-0.31 -1.08,-0.79q-0.34,-0.49 -0.47,-1.32q-0.11,-0.59 -0.11,-2.38l0,-5.56l-1.55,0l0,-2.69l1.55,0l0,-2.53l3.39,-1.97l0,4.5l2.3,0zm9.74,8.7l3.36,0.56q-0.65,1.85 -2.05,2.82q-1.39,0.97 -3.5,0.97q-3.32,0 -4.92,-2.18q-1.26,-1.74 -1.26,-4.4q0,-3.17 1.66,-4.96q1.65,-1.8 4.19,-1.8q2.84,0 4.49,1.88q1.65,1.88 1.57,5.76l-8.45,0q0.03,1.5 0.81,2.34q0.78,0.83 1.95,0.83q0.79,0 1.33,-0.43q0.54,-0.43 0.82,-1.39zm0.19,-3.41q-0.03,-1.47 -0.76,-2.23q-0.72,-0.76 -1.75,-0.76q-1.1,0 -1.82,0.8q-0.73,0.8 -0.71,2.19l5.04,0zm4.91,3.83l3.39,-0.52q0.21,0.99 0.87,1.5q0.66,0.51 1.85,0.51q1.31,0 1.97,-0.48q0.45,-0.34 0.45,-0.9q0,-0.39 -0.24,-0.64q-0.26,-0.24 -1.13,-0.45q-4.09,-0.9 -5.18,-1.64q-1.51,-1.03 -1.51,-2.87q0,-1.66 1.31,-2.79q1.3,-1.13 4.06,-1.13q2.61,0 3.89,0.85q1.27,0.86 1.75,2.53l-3.18,0.59q-0.21,-0.75 -0.78,-1.15q-0.57,-0.39 -1.62,-0.39q-1.34,0 -1.91,0.37q-0.39,0.27 -0.39,0.69q0,0.36 0.34,0.61q0.45,0.34 3.15,0.95q2.7,0.61 3.77,1.5q1.05,0.9 1.05,2.51q0,1.75 -1.46,3.01q-1.47,1.27 -4.34,1.27q-2.6,0 -4.12,-1.06q-1.52,-1.06 -1.99,-2.87z" fill="rgb(51, 51, 51)" id="svg_1"/>
 </g>
</svg>